<svg version="1" xmlns="http://www.w3.org/2000/svg" width="682.667" height="682.667" viewBox="0 0 512.000000 512.000000"><path d="M237.5.6c-1.6.2-7.3.9-12.5 1.5-38 4.2-77.9 19.1-111.3 41.3C85.3 62.3 58 90.3 39.5 119.6c-7 11.1-19.2 35.7-23.9 48.5-5.1 13.8-10.3 34.3-12.8 50.4-3.1 20-3.1 55 0 75 4.3 27.8 11.5 50.2 24.2 76 13.8 27.9 29 48.7 52.2 71C119 479 168.9 502.8 225 510.2c5.2.7 19.2 1.2 31 1.2s25.8-.5 31-1.2c45.5-6 87-22.9 123.9-50.5 5.3-3.9 16.8-14.4 25.6-23.2 23-22.9 35.2-39.9 49-68 12.3-24.9 19.4-47.6 23.7-75 3.1-20 3.1-55 0-75-4.3-27.3-11.4-49.8-23.7-75-13.6-27.9-26-45-49-68-8.8-8.8-20.3-19.3-25.6-23.2C375 25.4 335.1 8.9 291 2.4 281 1 243.9-.3 237.5.6zm-96 193.8c7.6 2.6 14 6.1 19.4 10.6l2.4 2.1-2.3 5c-1.3 2.8-2.7 5.2-3.2 5.5-.4.3-2.7-1.1-5.2-3-5.8-4.4-14.1-8.3-20.7-9.7-7.8-1.7-23.3-.7-30.1 2-11.5 4.5-20.2 15.4-23.9 30-2.9 11.6-2.4 33.2 1.1 43.4 4.4 13 13.6 22.6 24.9 26.4 4.2 1.3 8.5 1.8 17.1 1.7 13.4 0 18.8-1.7 29.7-9 3.6-2.4 6.7-4.4 6.9-4.4.2 0 1.6 2.3 3 5.2l2.7 5.2-4 3.6c-5 4.4-13.2 8.5-21.5 10.7-8.9 2.4-28.2 2.4-36.3-.1-19.8-5.9-32.9-20-38.7-41.3-2.9-11.1-2.9-32.5.1-43.6 6-22.7 20.6-37.5 41.4-42.2 10-2.3 27.3-1.4 37.2 1.9zm276-1.9c21.3 5.6 33.2 23.8 35.1 53.8.8 11.8-.7 27.1-3.7 37.9-5.6 20-18.4 33.3-35.7 36.9-11.9 2.5-30.3-1.3-41.5-8.5-8.3-5.2-8.5-5.8-5.4-12.1l2.6-5.4 7.8 5.3c9.3 6.2 16.6 8.7 25.6 8.7 11.4.1 19.4-4 25.5-12.9 5.9-8.8 10.2-25.5 10.2-40.1v-4.5l-2.9 4.5c-12.4 19.6-43.5 22.3-60.5 5.3-14.7-14.7-15.1-42.1-.7-57.7 4.4-4.8 13.5-10.1 19.7-11.6 6.2-1.4 17.5-1.2 23.9.4zm-104.7 57.7l.2 57.8h28v12h-72.1l.3-5.8.3-5.7 14.3-.3 14.2-.3v-48.4c0-26.7-.2-48.5-.5-48.5s-5.8 3.4-12.2 7.6c-6.5 4.2-12.3 7.9-13 8.1-1 .4-1.3-1.2-1.3-6.3v-6.9l16.8-10.7c14.9-9.6 17.1-10.8 20.7-10.5l4 .2.3 57.7zM233 272v6h-51v-12h51v6z"/><path d="M397.1 204.6c-13 3.5-19.8 14-18.9 29.3.5 9.3 4.1 16.7 10.2 21.2 5.3 3.9 10.5 5.2 19.1 4.7 8.1-.4 13.2-2.6 18.3-7.6 10.4-10.5 10.4-30.1 0-40.9-6.3-6.5-18.8-9.4-28.7-6.7z"/></svg>